<svg width="16" height="16" viewBox="0 0 16 16" fill="none" xmlns="http://www.w3.org/2000/svg">
<path d="M2 12.333V3.33301C2 2.22844 2.89543 1.33301 4 1.33301H13.3333C13.7015 1.33301 14 1.63149 14 1.99967V13.9997C14 14.3679 13.7015 14.6663 13.3333 14.6663H4.33333C3.04467 14.6663 2 13.6217 2 12.333ZM12.6667 13.333V11.333H4.33333C3.78105 11.333 3.33333 11.7807 3.33333 12.333C3.33333 12.8853 3.78105 13.333 4.33333 13.333H12.6667ZM6.66667 2.66634H4C3.63181 2.66634 3.33333 2.96482 3.33333 3.33301V10.2242C3.63642 10.0802 3.97547 9.99967 4.33333 9.99967H12.6667V2.66634H11.3333V7.99967L9 6.66634L6.66667 7.99967V2.66634Z" fill="white"/>
</svg>
